<?xml version="1.0" encoding="UTF-8" standalone="no"?>
<svg
   version="1.1"
   viewBox="-12.5 0 125 125"
   enable-background="new -12.5 0 125 125"
   xml:space="preserve"
   id="svg8"
   sodipodi:docname="app-icon.svg"
   inkscape:version="1.2 (dc2aedaf03, 2022-05-15)"
   xmlns:inkscape="http://www.inkscape.org/namespaces/inkscape"
   xmlns:sodipodi="http://sodipodi.sourceforge.net/DTD/sodipodi-0.dtd"
   xmlns="http://www.w3.org/2000/svg"
   xmlns:svg="http://www.w3.org/2000/svg"><defs
   id="defs12" /><sodipodi:namedview
   id="namedview10"
   pagecolor="#ffffff"
   bordercolor="#666666"
   borderopacity="1.0"
   inkscape:showpageshadow="2"
   inkscape:pageopacity="0.0"
   inkscape:pagecheckerboard="0"
   inkscape:deskcolor="#d1d1d1"
   showgrid="false"
   inkscape:zoom="6.632"
   inkscape:cx="62.5"
   inkscape:cy="50.512666"
   inkscape:window-width="1920"
   inkscape:window-height="1009"
   inkscape:window-x="-8"
   inkscape:window-y="-8"
   inkscape:window-maximized="1"
   inkscape:current-layer="svg8" />

<rect
   style="fill:#ffffff;fill-opacity:1;stroke-width:34.4765;stroke-linecap:round;stroke-linejoin:round"
   id="rect2433"
   width="125"
   height="125"
   x="-12.5"
   y="-5.3290705e-15" /><g
   transform="matrix(0.88497664,0,0,0.88497664,-3.7579759,-59.113045)"
   id="g6">
	<path
   fill="#009959"
   d="m 76.842,94.113 c -1.967,0.002 -3.913,0.471 -5.486,1.459 -10.902,5.025 -9.26,17.772 -10.048,27.894 -0.265,0.299 -0.584,1.039 -1.242,0.81 -0.471,-0.257 -0.956,-0.778 -1.077,-1.228 -0.539,-7.765 0.57,-15.797 -3.91,-21.859 -3.437,-4.031 -8.247,-6.505 -13.599,-5.271 -4.931,0.095 -8.411,4.883 -10.866,8.685 -2.459,3.441 -6.308,5.125 -8.772,8.472 -2.631,3.734 -2.838,9.702 -0.327,13.504 5.762,7.545 15.203,7.742 24.268,7.678 1.451,-0.447 3.54,-0.754 4.711,0.469 0.219,0.539 -0.03,1.102 -0.47,1.395 -6.543,1.021 -13.138,-0.535 -19.582,0.573 -5.002,0.758 -9.706,5.054 -11.08,9.893 -1.321,4.116 -0.229,8.627 2.513,11.769 5.798,3.519 8.827,10.04 13.68,14.901 2.192,1.508 5.168,2.171 7.878,1.466 10.031,-4.048 12.333,-15.182 13.244,-24.775 0.317,-0.755 0.338,-2.031 1.445,-1.922 0.459,0.069 0.678,0.607 0.705,1.061 -0.645,10.961 -0.263,22.569 4.658,31.639 l 7.698,-0.079 c -4.916,-7.325 -7.33,-15.988 -8.397,-24.996 0.303,-2.674 -1.14,-5.34 0.839,-7.561 0.376,-0.02 0.93,0.041 1.128,0.485 0.8,6.006 1.876,11.9 4.823,16.95 2.81,4.333 7.103,8.756 12.562,7.986 4.292,-0.245 8.135,-3.672 9.925,-7.531 1.128,-4.182 5.56,-6.92 8.297,-10.471 2.245,-3.886 3.376,-9.625 1.025,-13.89 -5.202,-9.338 -17.792,-6.588 -26.546,-5.724 -1.654,-0.092 -3.728,0.481 -4.97,-0.628 -0.125,-0.544 0.113,-1.012 0.548,-1.415 4.236,-1.249 8.752,-0.864 13.222,-1.308 6.459,-0.826 13.179,-3.414 16.114,-9.804 1.732,-3.495 1.182,-8.147 -0.827,-11.426 l -0.321,-0.374 -0.337,-0.374 -0.359,-0.357 -0.365,-0.34 -0.365,-0.325 -0.394,-0.323 -0.396,-0.308 -0.409,-0.291 -0.819,-0.582 -0.836,-0.565 -0.849,-0.565 -0.834,-0.55 -0.82,-0.582 -0.409,-0.291 -0.396,-0.308 -0.379,-0.323 -0.381,-0.325 -0.35,-0.327 -0.348,-0.357 -0.335,-0.357 -0.321,-0.374 -0.306,-0.406 -0.274,-0.408 -0.276,-0.44 -0.23,-0.458 -0.232,-0.474 -0.184,-0.493 c -0.846,-1.884 -2.592,-3.53 -4.303,-4.609 -1.768,-1.12 -4.025,-1.717 -6.256,-1.715 z m 4.381,10.434 1.937,1.996 -0.25,0.282 -0.252,0.264 -0.252,0.282 -0.266,0.283 -0.284,0.269 -0.266,0.282 -0.565,0.567 -0.55,0.55 -0.568,0.535 -0.266,0.284 -0.286,0.251 -0.266,0.266 -0.254,0.266 4.178,4.333 0.193,0.083 4.422,-4.292 2.059,2.177 -11.126,10.728 -2.037,-2.099 c 1.284,-1.44 2.94,-2.997 4.418,-4.371 l -4.371,-4.416 -4.532,4.284 -1.944,-2.089 0.69,-0.856 10.248,-9.846 z m -42.946,2.37 c 3.84,3.08 7.709,6.708 11.484,10.059 l 0.01,0.187 c -0.699,0.684 -1.389,1.543 -1.999,2.126 l -4.539,-4.046 -4.218,4.549 4.539,4.046 c -0.595,0.868 -1.294,1.551 -1.99,2.315 L 30.089,115.997 c 0.675,-0.856 1.19,-1.436 1.973,-2.313 l 4.638,4.135 4.125,-4.543 c -1.359,-1.478 -3.003,-2.752 -4.45,-4.147 0.508,-0.765 1.375,-1.538 1.902,-2.212 z m 42.102,35.809 12.002,9.481 0.095,-0.005 -1.881,2.307 c -1.624,-0.913 -3.18,-2.568 -4.801,-3.655 l -3.936,4.8 4.701,3.85 c -0.413,0.761 -1.091,1.539 -1.786,2.301 l -0.668,-0.418 -11.433,-9.152 1.878,-2.307 4.806,3.765 c 1.379,-1.462 2.575,-3.088 3.943,-4.72 l -0.288,-0.347 -4.508,-3.497 z m -39.725,0.989 2.037,2.084 -4.517,4.298 4.199,4.428 4.627,-4.021 1.958,2.087 -0.349,0.476 -10.965,9.98 -2.058,-2.176 4.52,-4.204 c -1.363,-1.573 -2.829,-3.03 -4.188,-4.523 -1.499,1.281 -3.069,2.659 -4.547,4.018 -0.664,-0.606 -1.54,-1.374 -2.037,-2.068 z"
   id="path4" />
</g>
</svg>
