<svg version="1.1" xmlns="http://www.w3.org/2000/svg" xmlns:xlink="http://www.w3.org/1999/xlink" viewBox="-12.5 0 125 125" enable-background="new -12.5 0 125 125" xml:space="preserve">
<circle fill="#FFFFFF" cx="50" cy="62.501" r="62.5"/>
<g transform="matrix(1.1546048,0,0,1.1546048,-20.138128,-96.165114)">
	<path fill="#009959" d="M76.842,94.113c-1.967,0.002-3.913,0.471-5.486,1.459c-10.902,5.025-9.26,17.772-10.048,27.894
		c-0.265,0.299-0.584,1.039-1.242,0.81c-0.471-0.257-0.956-0.778-1.077-1.228c-0.539-7.765,0.57-15.797-3.91-21.859
		c-3.437-4.031-8.247-6.505-13.599-5.271c-4.931,0.095-8.411,4.883-10.866,8.685c-2.459,3.441-6.308,5.125-8.772,8.472
		c-2.631,3.734-2.838,9.702-0.327,13.504c5.762,7.545,15.203,7.742,24.268,7.678c1.451-0.447,3.54-0.754,4.711,0.469
		c0.219,0.539-0.03,1.102-0.47,1.395c-6.543,1.021-13.138-0.535-19.582,0.573c-5.002,0.758-9.706,5.054-11.08,9.893
		c-1.321,4.116-0.229,8.627,2.513,11.769c5.798,3.519,8.827,10.04,13.68,14.901c2.192,1.508,5.168,2.171,7.878,1.466
		c10.031-4.048,12.333-15.182,13.244-24.775c0.317-0.755,0.338-2.031,1.445-1.922c0.459,0.069,0.678,0.607,0.705,1.061
		c-0.645,10.961-0.263,22.569,4.658,31.639l7.698-0.079c-4.916-7.325-7.33-15.988-8.397-24.996c0.303-2.674-1.14-5.34,0.839-7.561
		c0.376-0.02,0.93,0.041,1.128,0.485c0.8,6.006,1.876,11.9,4.823,16.95c2.81,4.333,7.103,8.756,12.562,7.986
		c4.292-0.245,8.135-3.672,9.925-7.531c1.128-4.182,5.56-6.92,8.297-10.471c2.245-3.886,3.376-9.625,1.025-13.89
		c-5.202-9.338-17.792-6.588-26.546-5.724c-1.654-0.092-3.728,0.481-4.97-0.628c-0.125-0.544,0.113-1.012,0.548-1.415
		c4.236-1.249,8.752-0.864,13.222-1.308c6.459-0.826,13.179-3.414,16.114-9.804c1.732-3.495,1.182-8.147-0.827-11.426l-0.321-0.374
		l-0.337-0.374l-0.359-0.357l-0.365-0.34l-0.365-0.325l-0.394-0.323l-0.396-0.308l-0.409-0.291l-0.819-0.582l-0.836-0.565
		l-0.849-0.565l-0.834-0.55l-0.82-0.582l-0.409-0.291l-0.396-0.308l-0.379-0.323l-0.381-0.325l-0.35-0.327l-0.348-0.357
		l-0.335-0.357l-0.321-0.374l-0.306-0.406l-0.274-0.408l-0.276-0.44l-0.23-0.458l-0.232-0.474l-0.184-0.493
		c-0.846-1.884-2.592-3.53-4.303-4.609C81.33,94.708,79.073,94.111,76.842,94.113L76.842,94.113z M81.223,104.547l1.937,1.996
		l-0.25,0.282l-0.252,0.264l-0.252,0.282l-0.266,0.283l-0.284,0.269l-0.266,0.282l-0.565,0.567l-0.55,0.55l-0.568,0.535
		l-0.266,0.284l-0.286,0.251l-0.266,0.266l-0.254,0.266l4.178,4.333l0.193,0.083l4.422-4.292l2.059,2.177l-11.126,10.728
		l-2.037-2.099c1.284-1.44,2.94-2.997,4.418-4.371l-4.371-4.416l-4.532,4.284l-1.944-2.089l0.69-0.856l10.248-9.846L81.223,104.547z
		 M38.277,106.917c3.84,3.08,7.709,6.708,11.484,10.059l0.01,0.187c-0.699,0.684-1.389,1.543-1.999,2.126l-4.539-4.046l-4.218,4.549
		l4.539,4.046c-0.595,0.868-1.294,1.551-1.99,2.315l-11.475-10.156c0.675-0.856,1.19-1.436,1.973-2.313l4.638,4.135l4.125-4.543
		c-1.359-1.478-3.003-2.752-4.45-4.147C36.883,108.364,37.75,107.591,38.277,106.917L38.277,106.917z M80.379,142.726l12.002,9.481
		l0.095-0.005l-1.881,2.307c-1.624-0.913-3.18-2.568-4.801-3.655l-3.936,4.8l4.701,3.85c-0.413,0.761-1.091,1.539-1.786,2.301
		l-0.668-0.418l-11.433-9.152l1.878-2.307l4.806,3.765c1.379-1.462,2.575-3.088,3.943-4.72l-0.288-0.347l-4.508-3.497
		L80.379,142.726z M40.654,143.715l2.037,2.084l-4.517,4.298l4.199,4.428l4.627-4.021l1.958,2.087l-0.349,0.476l-10.965,9.98
		l-2.058-2.176l4.52-4.204c-1.363-1.573-2.829-3.03-4.188-4.523c-1.499,1.281-3.069,2.659-4.547,4.018
		c-0.664-0.606-1.54-1.374-2.037-2.068L40.654,143.715z"/>
</g>
</svg>
