<svg version="1.1" xmlns="http://www.w3.org/2000/svg" xmlns:xlink="http://www.w3.org/1999/xlink" viewBox="0 0 51.252 52.916" xml:space="preserve">
	<g transform="matrix(1.1546048,0,0,1.1546048,-20.138128,-96.165114)">
		<path d="M48.152,83.288c-1.041,0.001-2.071,0.249-2.903,0.772c-5.769,2.659-4.9,9.404-5.317,14.76
		c-0.14,0.158-0.309,0.55-0.657,0.429c-0.249-0.136-0.506-0.412-0.57-0.65c-0.285-4.109,0.302-8.359-2.069-11.567
		c-1.819-2.133-4.364-3.442-7.196-2.789c-2.609,0.05-4.451,2.584-5.75,4.596c-1.301,1.821-3.338,2.712-4.642,4.483
		c-1.392,1.976-1.502,5.134-0.173,7.146c3.049,3.992,8.045,4.097,12.842,4.063c0.768-0.236,1.873-0.399,2.493,0.248
		c0.116,0.285-0.016,0.583-0.249,0.738c-3.462,0.54-6.952-0.283-10.362,0.303c-2.647,0.401-5.136,2.674-5.863,5.235
		c-0.699,2.178-0.121,4.565,1.33,6.228c3.068,1.862,4.671,5.313,7.239,7.885c1.16,0.798,2.735,1.149,4.169,0.776
		c5.308-2.142,6.526-8.034,7.008-13.11c0.168-0.4,0.179-1.075,0.765-1.017c0.243,0.036,0.359,0.321,0.373,0.561
		c-0.341,5.8-0.139,11.943,2.465,16.742l4.073-0.042c-2.601-3.876-3.878-8.46-4.443-13.227c0.16-1.415-0.603-2.826,0.444-4.001
		c0.199-0.011,0.492,0.022,0.597,0.257c0.423,3.178,0.993,6.297,2.552,8.969c1.487,2.293,3.759,4.633,6.647,4.226
		c2.271-0.13,4.305-1.943,5.252-3.985c0.597-2.213,2.942-3.662,4.39-5.541c1.188-2.056,1.787-5.093,0.543-7.35
		c-2.753-4.941-9.415-3.486-14.047-3.029c-0.876-0.049-1.973,0.255-2.63-0.332c-0.066-0.288,0.06-0.536,0.29-0.749
		c2.241-0.661,4.631-0.457,6.996-0.692c3.418-0.437,6.974-1.806,8.527-5.188c0.917-1.849,0.626-4.311-0.438-6.046l-0.17-0.198
		l-0.178-0.198L59.3,91.805l-0.193-0.18l-0.193-0.172l-0.209-0.171l-0.209-0.163l-0.217-0.154l-0.433-0.308l-0.442-0.299
		l-0.45-0.299l-0.441-0.291l-0.434-0.308l-0.217-0.154l-0.209-0.163l-0.201-0.171l-0.201-0.172l-0.185-0.173l-0.185-0.189
		l-0.177-0.189l-0.17-0.198l-0.162-0.215l-0.145-0.216l-0.146-0.233l-0.122-0.242l-0.122-0.251l-0.098-0.261
		c-0.448-0.997-1.371-1.868-2.277-2.439C50.526,83.603,49.332,83.287,48.152,83.288L48.152,83.288z M50.47,88.809l1.025,1.056
		l-0.133,0.149l-0.133,0.14l-0.133,0.149l-0.141,0.15l-0.15,0.142l-0.141,0.149l-0.299,0.3l-0.291,0.291l-0.3,0.283l-0.141,0.15
		l-0.151,0.133l-0.141,0.141l-0.134,0.141l2.211,2.293l0.102,0.044l2.34-2.271l1.089,1.152l-5.887,5.677l-1.078-1.111
		c0.68-0.762,1.556-1.586,2.338-2.313l-2.313-2.337l-2.398,2.267l-1.028-1.105l0.365-0.453l5.423-5.21L50.47,88.809z M27.745,90.063
		c2.032,1.63,4.079,3.55,6.077,5.323l0.005,0.099c-0.37,0.362-0.735,0.816-1.058,1.125l-2.402-2.141l-2.232,2.407l2.402,2.141
		c-0.315,0.459-0.685,0.821-1.053,1.225l-6.072-5.374c0.357-0.453,0.63-0.76,1.044-1.224l2.454,2.188l2.183-2.404
		c-0.719-0.782-1.589-1.456-2.355-2.194C27.007,90.829,27.466,90.42,27.745,90.063L27.745,90.063z M50.023,109.012l6.351,5.017
		l0.05-0.003l-0.995,1.221c-0.859-0.483-1.683-1.359-2.54-1.934l-2.083,2.54l2.487,2.037c-0.218,0.403-0.577,0.815-0.945,1.218
		l-0.354-0.221l-6.05-4.843l0.994-1.221l2.543,1.992c0.729-0.774,1.362-1.634,2.086-2.498l-0.152-0.183l-2.385-1.851L50.023,109.012
		z M29.003,109.535l1.078,1.103l-2.39,2.274l2.222,2.343l2.448-2.128l1.036,1.105l-0.185,0.252l-5.802,5.281l-1.089-1.152
		l2.392-2.225c-0.721-0.832-1.497-1.603-2.216-2.393c-0.793,0.677-1.624,1.407-2.406,2.126c-0.351-0.321-0.815-0.727-1.078-1.094
		L29.003,109.535z" />
	</g>
</svg>