<svg xmlns="http://www.w3.org/2000/svg" viewBox="0 0 132.29167 52.916668" version="1.1" aria-labelledby="logoTitle" role="img">
	<title id="logoTitle">4-H Fair</title>
	<g transform="matrix(1.1546048,0,0,1.1546048,-20.138128,-96.165114)">
		<path style="font-style:normal;font-variant:normal;font-weight:normal;font-stretch:normal;letter-spacing:normal;word-spacing:normal;text-anchor:start;fill-opacity:1;fill-rule:evenodd;stroke:none;stroke-width:0;stroke-linecap:butt;stroke-linejoin:miter;stroke-miterlimit:4;stroke-dasharray:none;stroke-dashoffset:0;stroke-opacity:1" d="m 48.151705,83.28834 c -1.041143,10e-4 -2.071277,0.2487 -2.902861,0.77201 -5.769203,2.65957 -4.89998,9.404761 -5.31649,14.759841 -0.140661,0.15777 -0.30945,0.55004 -0.657407,0.4286 -0.24896,-0.13543 -0.506072,-0.41189 -0.569597,-0.64944 -0.285509,-4.10886 0.302499,-8.3593 -2.068786,-11.56675 -1.818982,-2.132981 -4.364272,-3.442401 -7.196196,-2.789311 -2.608682,0.0498 -4.45103,2.58391 -5.749534,4.596231 -1.301149,1.82118 -3.337712,2.71149 -4.641703,4.48294 -1.392069,1.9761 -1.502103,5.13456 -0.172487,7.145879 3.048376,3.99202 8.044618,4.09644 12.841585,4.06257 0.768302,-0.23534 1.873427,-0.3986 2.492685,0.24789 0.116118,0.28443 -0.01648,0.58318 -0.248799,0.7379 -3.462205,0.53952 -6.952618,-0.28339 -10.362229,0.30302 -2.646746,0.40127 -5.136301,2.67325 -5.862696,5.23495 -0.69852,2.17753 -0.12095,4.56469 1.330104,6.22806 3.067608,1.86176 4.671174,5.3128 7.238924,7.88522 1.160269,0.79844 2.735647,1.14886 4.16972,0.77554 5.308149,-2.14244 6.525487,-8.03417 7.007898,-13.11025 0.168324,-0.40055 0.179572,-1.0748 0.765079,-1.01688 0.243258,0.0359 0.359414,0.32043 0.373197,0.56084 -0.341101,5.79988 -0.138579,11.94282 2.465374,16.74212 l 4.072893,-0.0423 c -2.600929,-3.87629 -3.878405,-8.46052 -4.442823,-13.22707 0.160073,-1.41475 -0.602841,-2.82649 0.444283,-4.00102 0.198956,-0.0114 0.491934,0.0217 0.596906,0.2569 0.423414,3.17778 0.993102,6.29729 2.551879,8.96915 1.48718,2.29338 3.758837,4.6332 6.646462,4.22643 2.271393,-0.13025 4.304986,-1.94351 5.252459,-3.98561 0.596673,-2.21327 2.942126,-3.66177 4.38964,-5.54124 1.187883,-2.05588 1.787253,-5.09269 0.54333,-7.35013 -2.753445,-4.94044 -9.415174,-3.48555 -14.046503,-3.0287 -0.876127,-0.0496 -1.973163,0.25445 -2.630542,-0.33164 -0.06638,-0.28728 0.06083,-0.53574 0.289828,-0.74848 2.240964,-0.6608 4.631235,-0.45687 6.996401,-0.6923 3.418164,-0.4372 6.974338,-1.80548 8.526948,-5.188039 0.916964,-1.84906 0.626021,-4.31084 -0.438272,-6.04629 l -0.169348,-0.19823 -0.177713,-0.1977 -0.193785,-0.18843 -0.193265,-0.1802 -0.192869,-0.17196 -0.209337,-0.17105 -0.208941,-0.16255 -0.216786,-0.15393 -0.433566,-0.30787 -0.441276,-0.2991 -0.449641,-0.29859 -0.440755,-0.29074 -0.433566,-0.30773 -0.216783,-0.15393 -0.208944,-0.16269 -0.201103,-0.17144 -0.201103,-0.17144 -0.184508,-0.17248 -0.185552,-0.18895 -0.177192,-0.18935 -0.169348,-0.19822 -0.162033,-0.21535 -0.145437,-0.21613 -0.14648,-0.23286 -0.122047,-0.24252 -0.12244,-0.250761 -0.09813,-0.26056 c -0.448088,-0.9973 -1.371265,-1.86755 -2.277338,-2.43937 -0.93527,-0.59146 -2.129416,-0.9075 -3.30938,-0.90647 z m 2.318109,5.520991 1.025245,1.0557 -0.132761,0.14909 -0.133285,0.1406 -0.132893,0.1491 -0.141126,0.14949 -0.14988,0.14165 -0.141123,0.14948 -0.298846,0.29989 -0.291135,0.29114 -0.29976,0.2833 -0.141124,0.14948 -0.150404,0.13342 -0.141647,0.14125 -0.133284,0.14074 2.210827,2.29341 0.102314,0.044 2.339799,-2.27158 1.089142,1.15173 -5.887259,5.67714 -1.078429,-1.11083 c 0.679851,-0.76256 1.555872,-1.58633 2.337579,-2.31315 l -2.313144,-2.33744 -2.39834,2.26662 -1.028252,-1.10535 0.364966,-0.45343 5.423378,-5.20973 z m -22.725036,1.25327 c 2.031333,1.6301 4.079294,3.55028 6.077259,5.32368 l 0.0057,0.0994 c -0.370125,0.36222 -0.735061,0.81571 -1.058306,1.12534 l -2.401606,-2.14118 -2.232388,2.40683 2.401607,2.14118 c -0.314689,0.45884 -0.684809,0.82111 -1.052557,1.224779 l -6.071771,-5.373979 c 0.356613,-0.45293 0.630028,-0.75971 1.044194,-1.22426 l 2.454267,2.18796 2.182602,-2.40396 c -0.718526,-0.78218 -1.5888,-1.45583 -2.354695,-2.19371 0.267802,-0.40626 0.726702,-0.81513 1.005645,-1.17212 z m 22.27827,18.949419 6.35075,5.01699 0.04979,-0.003 -0.994538,1.22138 c -0.859397,-0.48301 -1.683128,-1.359 -2.539463,-1.93367 l -2.083291,2.53973 2.487065,2.03651 c -0.218063,0.4034 -0.576999,0.81484 -0.944752,1.2185 l -0.353726,-0.22083 -6.049688,-4.84294 0.994538,-1.22138 2.542864,1.99156 c 0.729114,-0.7737 1.361758,-1.63328 2.085643,-2.49817 l -0.15184,-0.18268 -2.385011,-1.85096 z m -21.020298,0.52334 1.077908,1.1026 -2.389716,2.27447 2.221934,2.3428 2.447994,-2.12811 1.036354,1.10496 -0.185161,0.2518 -5.801803,5.28121 -1.089015,-1.15174 2.392461,-2.22481 c -0.721379,-0.83192 -1.497437,-1.6025 -2.216446,-2.39298 -0.792847,0.67756 -1.624261,1.40723 -2.406442,2.12576 -0.351074,-0.32086 -0.815245,-0.7267 -1.077515,-1.09424 z" />
		<g style="font-style:normal;font-weight:normal;font-size:33.9473px;line-height:1.25;font-family:sans-serif;letter-spacing:-2.46592px;word-spacing:0px;fill-opacity:1;stroke:none;stroke-width:0.848684">
			<path d="M 72.414587,118.08539 V 94.322278 h 15.34418 V 97.81885 H 76.759841 v 6.65367 h 8.894193 v 3.42868 h -8.894193 v 10.18419 z" style="font-style:normal;font-variant:normal;font-weight:bold;font-stretch:normal;font-family:'DM Sans';stroke-width:0.848684" />
			<path d="m 84.545955,118.08539 8.690509,-23.763112 h 4.888411 l 8.690505,23.763112 h -4.61683 l -1.90105,-5.49946 h -9.267611 l -1.934996,5.49946 z m 7.67209,-8.89419 h 6.891302 l -3.462625,-9.878669 z" style="font-style:normal;font-variant:normal;font-weight:bold;font-stretch:normal;font-family:'DM Sans';stroke-width:0.848684" />
			<path d="M 107.40466,118.08539 V 94.322278 h 4.34526 v 23.763112 z" style="font-style:normal;font-variant:normal;font-weight:bold;font-stretch:normal;font-family:'DM Sans';stroke-width:0.848684" />
			<path d="M 113.90083,118.08539 V 94.322278 h 8.72445 q 2.85158,0 4.68473,0.984472 1.8671,0.950524 2.78368,2.613942 0.91658,1.62947 0.91658,3.632358 0,2.17263 -1.15421,3.97184 -1.12026,1.7992 -3.53052,2.61394 l 4.92236,9.94656 h -4.99026 l -4.41314,-9.36946 h -3.59842 v 9.36946 z m 4.34525,-12.5605 h 4.10763 q 2.17262,0 3.19104,-1.05237 1.01842,-1.05237 1.01842,-2.78368 0,-1.697363 -1.01842,-2.715782 -0.98447,-1.018419 -3.22499,-1.018419 h -4.07368 z" style="font-style:normal;font-variant:normal;font-weight:bold;font-stretch:normal;font-family:'DM Sans';stroke-width:0.848684" />
		</g>
	</g>
</svg>